<mxfile host="app.diagrams.net" agent="Mozilla/5.0 (Windows NT 10.0; Win64; x64) AppleWebKit/537.36 (KHTML, like Gecko) Chrome/130.0.0.0 Safari/537.36 Edg/130.0.0.0" version="24.7.16">
  <diagram name="第 1 页" id="6oSLzW6OdK55gBQiA2pg">
    <mxGraphModel dx="1181" dy="653" grid="1" gridSize="10" guides="1" tooltips="1" connect="1" arrows="1" fold="1" page="1" pageScale="1" pageWidth="827" pageHeight="1169" math="0" shadow="0">
      <root>
        <mxCell id="0" />
        <mxCell id="1" parent="0" />
        <mxCell id="vPA88ml3--isu-U90VJn-1" value="waiter" style="rounded=0;whiteSpace=wrap;html=1;" vertex="1" parent="1">
          <mxGeometry x="230" y="385" width="70" height="60" as="geometry" />
        </mxCell>
        <mxCell id="vPA88ml3--isu-U90VJn-21" style="edgeStyle=orthogonalEdgeStyle;rounded=0;orthogonalLoop=1;jettySize=auto;html=1;exitX=0.5;exitY=0;exitDx=0;exitDy=0;entryX=0.5;entryY=1;entryDx=0;entryDy=0;" edge="1" parent="1" source="vPA88ml3--isu-U90VJn-2" target="vPA88ml3--isu-U90VJn-15">
          <mxGeometry relative="1" as="geometry" />
        </mxCell>
        <mxCell id="vPA88ml3--isu-U90VJn-2" value="waiter" style="rounded=0;whiteSpace=wrap;html=1;" vertex="1" parent="1">
          <mxGeometry x="300" y="385" width="70" height="60" as="geometry" />
        </mxCell>
        <mxCell id="vPA88ml3--isu-U90VJn-22" style="edgeStyle=orthogonalEdgeStyle;rounded=0;orthogonalLoop=1;jettySize=auto;html=1;exitX=0.5;exitY=0;exitDx=0;exitDy=0;entryX=0.5;entryY=1;entryDx=0;entryDy=0;" edge="1" parent="1" source="vPA88ml3--isu-U90VJn-3" target="vPA88ml3--isu-U90VJn-17">
          <mxGeometry relative="1" as="geometry" />
        </mxCell>
        <mxCell id="vPA88ml3--isu-U90VJn-3" value="waiter" style="rounded=0;whiteSpace=wrap;html=1;" vertex="1" parent="1">
          <mxGeometry x="440" y="385" width="70" height="60" as="geometry" />
        </mxCell>
        <mxCell id="vPA88ml3--isu-U90VJn-23" style="edgeStyle=orthogonalEdgeStyle;rounded=0;orthogonalLoop=1;jettySize=auto;html=1;exitX=0.5;exitY=0;exitDx=0;exitDy=0;entryX=0.5;entryY=1;entryDx=0;entryDy=0;" edge="1" parent="1" source="vPA88ml3--isu-U90VJn-4" target="vPA88ml3--isu-U90VJn-18">
          <mxGeometry relative="1" as="geometry" />
        </mxCell>
        <mxCell id="vPA88ml3--isu-U90VJn-4" value="waiter" style="rounded=0;whiteSpace=wrap;html=1;" vertex="1" parent="1">
          <mxGeometry x="510" y="385" width="70" height="60" as="geometry" />
        </mxCell>
        <mxCell id="vPA88ml3--isu-U90VJn-5" value="......" style="rounded=0;whiteSpace=wrap;html=1;" vertex="1" parent="1">
          <mxGeometry x="370" y="385" width="70" height="60" as="geometry" />
        </mxCell>
        <mxCell id="vPA88ml3--isu-U90VJn-6" value="event的wq" style="text;html=1;align=center;verticalAlign=middle;whiteSpace=wrap;rounded=0;" vertex="1" parent="1">
          <mxGeometry x="150" y="400" width="60" height="30" as="geometry" />
        </mxCell>
        <mxCell id="vPA88ml3--isu-U90VJn-7" value="hw的cookie" style="text;html=1;align=center;verticalAlign=middle;whiteSpace=wrap;rounded=0;" vertex="1" parent="1">
          <mxGeometry x="240" y="595" width="80" height="30" as="geometry" />
        </mxCell>
        <mxCell id="vPA88ml3--isu-U90VJn-9" value="cookie里面的evt id" style="ellipse;whiteSpace=wrap;html=1;" vertex="1" parent="1">
          <mxGeometry x="130" y="585" width="100" height="50" as="geometry" />
        </mxCell>
        <mxCell id="vPA88ml3--isu-U90VJn-10" value="" style="endArrow=classic;html=1;rounded=0;entryX=0.5;entryY=1;entryDx=0;entryDy=0;exitX=0.5;exitY=0;exitDx=0;exitDy=0;" edge="1" parent="1" source="vPA88ml3--isu-U90VJn-9" target="vPA88ml3--isu-U90VJn-6">
          <mxGeometry width="50" height="50" relative="1" as="geometry">
            <mxPoint x="390" y="610" as="sourcePoint" />
            <mxPoint x="440" y="560" as="targetPoint" />
          </mxGeometry>
        </mxCell>
        <mxCell id="vPA88ml3--isu-U90VJn-11" value="中断处理流程，通过evt id找到进程关联的event数据结构&lt;div&gt;&lt;br&gt;&lt;/div&gt;&lt;div&gt;wakeup_evt api会将valid标志设置为true（&lt;font color=&quot;#f20202&quot;&gt;同一个event可以循环使用&lt;/font&gt;）&lt;/div&gt;" style="text;html=1;align=center;verticalAlign=middle;whiteSpace=wrap;rounded=0;" vertex="1" parent="1">
          <mxGeometry x="100" y="510" width="160" height="30" as="geometry" />
        </mxCell>
        <mxCell id="vPA88ml3--isu-U90VJn-14" value="thread1" style="ellipse;whiteSpace=wrap;html=1;aspect=fixed;" vertex="1" parent="1">
          <mxGeometry x="240" y="240" width="50" height="50" as="geometry" />
        </mxCell>
        <mxCell id="vPA88ml3--isu-U90VJn-15" value="thread2" style="ellipse;whiteSpace=wrap;html=1;aspect=fixed;" vertex="1" parent="1">
          <mxGeometry x="310" y="240" width="50" height="50" as="geometry" />
        </mxCell>
        <mxCell id="vPA88ml3--isu-U90VJn-17" value="thread3" style="ellipse;whiteSpace=wrap;html=1;aspect=fixed;" vertex="1" parent="1">
          <mxGeometry x="450" y="240" width="50" height="50" as="geometry" />
        </mxCell>
        <mxCell id="vPA88ml3--isu-U90VJn-18" value="thread4" style="ellipse;whiteSpace=wrap;html=1;aspect=fixed;" vertex="1" parent="1">
          <mxGeometry x="520" y="240" width="50" height="50" as="geometry" />
        </mxCell>
        <mxCell id="vPA88ml3--isu-U90VJn-19" value="......" style="text;html=1;align=center;verticalAlign=middle;whiteSpace=wrap;rounded=0;" vertex="1" parent="1">
          <mxGeometry x="370" y="250" width="60" height="30" as="geometry" />
        </mxCell>
        <mxCell id="vPA88ml3--isu-U90VJn-20" value="" style="endArrow=classic;html=1;rounded=0;entryX=0.5;entryY=1;entryDx=0;entryDy=0;exitX=0.5;exitY=0;exitDx=0;exitDy=0;" edge="1" parent="1" source="vPA88ml3--isu-U90VJn-1" target="vPA88ml3--isu-U90VJn-14">
          <mxGeometry width="50" height="50" relative="1" as="geometry">
            <mxPoint x="390" y="610" as="sourcePoint" />
            <mxPoint x="440" y="560" as="targetPoint" />
          </mxGeometry>
        </mxCell>
        <mxCell id="vPA88ml3--isu-U90VJn-24" value="遍历链表，挨个唤醒waiter对应的执行流(thread)" style="text;html=1;align=center;verticalAlign=middle;whiteSpace=wrap;rounded=0;" vertex="1" parent="1">
          <mxGeometry x="334" y="320" width="146" height="30" as="geometry" />
        </mxCell>
        <mxCell id="vPA88ml3--isu-U90VJn-25" value="" style="curved=1;endArrow=classic;html=1;rounded=0;exitX=1;exitY=0.5;exitDx=0;exitDy=0;" edge="1" parent="1" source="vPA88ml3--isu-U90VJn-4">
          <mxGeometry width="50" height="50" relative="1" as="geometry">
            <mxPoint x="390" y="610" as="sourcePoint" />
            <mxPoint x="340" y="610" as="targetPoint" />
            <Array as="points">
              <mxPoint x="630" y="480" />
              <mxPoint x="530" y="580" />
              <mxPoint x="440" y="610" />
            </Array>
          </mxGeometry>
        </mxCell>
        <mxCell id="vPA88ml3--isu-U90VJn-26" value="KMD的wait event ioctl会将valid标志设置为false(&lt;font color=&quot;#f20202&quot;&gt;同一个event可以循环使用&lt;/font&gt;)" style="text;html=1;align=center;verticalAlign=middle;whiteSpace=wrap;rounded=0;" vertex="1" parent="1">
          <mxGeometry x="510" y="510" width="160" height="30" as="geometry" />
        </mxCell>
        <mxCell id="vPA88ml3--isu-U90VJn-27" value="Fig.一个event存在多个waiter的情形（多个执行流都关系这个event）" style="text;html=1;align=center;verticalAlign=middle;whiteSpace=wrap;rounded=0;fontSize=18;fontStyle=1" vertex="1" parent="1">
          <mxGeometry x="130" y="660" width="575" height="30" as="geometry" />
        </mxCell>
      </root>
    </mxGraphModel>
  </diagram>
</mxfile>
